<svg xmlns="http://www.w3.org/2000/svg" xmlns:xlink="http://www.w3.org/1999/xlink" viewBox="0 0 288 72"><defs><style>.cls-1{fill:url(#linear-gradient);}.cls-2{fill:url(#radial-gradient);}.cls-3{fill:url(#linear-gradient-2);}.cls-4{fill:url(#radial-gradient-2);}.cls-5{fill:url(#radial-gradient-3);}.cls-6{fill:url(#radial-gradient-4);}.cls-7{fill:url(#radial-gradient-5);}.cls-8{fill:url(#radial-gradient-6);}.cls-9{fill:#fff;}</style><linearGradient id="linear-gradient" x1="269.83" y1="120.4" x2="269.83" y2="189.45" gradientTransform="translate(-120.61 -156.11) scale(0.98 1.18)" gradientUnits="userSpaceOnUse"><stop offset="0" stop-color="#39b54a"/><stop offset="0.2" stop-color="#35af49"/><stop offset="0.46" stop-color="#29a045"/><stop offset="0.74" stop-color="#16863e"/><stop offset="1" stop-color="#006837"/></linearGradient><radialGradient id="radial-gradient" cx="268.72" cy="127.99" r="132.86" gradientTransform="translate(-137.13 -121.07) scale(1.04 0.98)" gradientUnits="userSpaceOnUse"><stop offset="0" stop-color="#39b54a"/><stop offset="1" stop-color="#009245"/></radialGradient><linearGradient id="linear-gradient-2" x1="270.04" y1="181.92" x2="270.04" y2="140.27" gradientTransform="translate(-137.01 -185.69) scale(1.04 1.38)" gradientUnits="userSpaceOnUse"><stop offset="0" stop-color="#39b54a"/><stop offset="1" stop-color="#006837"/></linearGradient><radialGradient id="radial-gradient-2" cx="143.5" cy="36" r="150.53" gradientTransform="matrix(1, 0, 0, 1, 0, 0)" xlink:href="#radial-gradient"/><radialGradient id="radial-gradient-3" cx="261.73" cy="175.22" r="9.95" gradientUnits="userSpaceOnUse"><stop offset="0" stop-color="#bdffc6"/><stop offset="1" stop-color="#398744"/></radialGradient><radialGradient id="radial-gradient-4" cx="261.54" cy="158.29" r="9.51" xlink:href="#radial-gradient-3"/><radialGradient id="radial-gradient-5" cx="278.27" cy="175.02" r="9.51" xlink:href="#radial-gradient-3"/><radialGradient id="radial-gradient-6" cx="278.46" cy="158.49" r="9.51" xlink:href="#radial-gradient-3"/></defs><title>logo-darker</title><g id="Layer_3" data-name="Layer 3"><rect class="cls-1" width="288" height="72" rx="27" ry="27"/><rect class="cls-2" x="2.16" y="2.16" width="283.68" height="67.68" rx="24.84" ry="24.84"/><rect class="cls-3" x="10.8" y="10.8" width="266.4" height="50.4" rx="16.2" ry="16.2"/><rect class="cls-4" x="12.96" y="12.96" width="262.08" height="46.08" rx="14.04" ry="14.04"/><g id="holes-2" data-name="holes"><path class="cls-5" d="M267.57,170.46a5.84,5.84,0,1,0-5.84,5.84A5.84,5.84,0,0,0,267.57,170.46Zm-10.59,0a4.75,4.75,0,1,1,4.75,4.75A4.75,4.75,0,0,1,257,170.46Z" transform="translate(-126 -126)"/><path class="cls-6" d="M261.54,147.7a5.84,5.84,0,1,0,5.84,5.84A5.84,5.84,0,0,0,261.54,147.7Zm0,10.59a4.75,4.75,0,1,1,4.75-4.75A4.75,4.75,0,0,1,261.54,158.29Z" transform="translate(-126 -126)"/><path class="cls-7" d="M278.27,164.43a5.84,5.84,0,1,0,5.84,5.84A5.84,5.84,0,0,0,278.27,164.43Zm0,10.59a4.75,4.75,0,1,1,4.75-4.75A4.75,4.75,0,0,1,278.27,175Z" transform="translate(-126 -126)"/><path class="cls-8" d="M284.3,153.73a5.84,5.84,0,1,0-5.84,5.84A5.84,5.84,0,0,0,284.3,153.73Zm-10.59,0a4.75,4.75,0,1,1,4.75,4.75A4.75,4.75,0,0,1,273.71,153.73Z" transform="translate(-126 -126)"/><circle class="cls-9" cx="152.46" cy="27.73" r="4.66"/><circle class="cls-9" cx="135.54" cy="27.54" r="4.66"/><circle class="cls-9" cx="135.73" cy="44.46" r="4.66"/><circle class="cls-9" cx="152.27" cy="44.27" r="4.66"/></g></g></svg>